<svg height="40" viewBox="0 0 40 40" width="40" xmlns="http://www.w3.org/2000/svg"><path d="m20 39.974a19.183 19.183 0 0 0 7.713-1.567 20.526 20.526 0 0 0 10.711-10.707 19.163 19.163 0 0 0 1.568-7.71 19.163 19.163 0 0 0 -1.568-7.709 20.5 20.5 0 0 0 -10.724-10.708 19.252 19.252 0 0 0 -7.72-1.567 19.182 19.182 0 0 0 -7.713 1.567 20.489 20.489 0 0 0 -10.692 10.707 19.163 19.163 0 0 0 -1.568 7.71 19.162 19.162 0 0 0 1.568 7.71 20.526 20.526 0 0 0 10.711 10.706 19.184 19.184 0 0 0 7.714 1.568zm10.055-20.023a1.638 1.638 0 0 0 -.568-1.136l-6.606-6.642a1.4 1.4 0 0 0 -1.039-.392 1.378 1.378 0 0 0 -1 .4 1.351 1.351 0 0 0 -.412 1.009 1.385 1.385 0 0 0 .451 1.038l2.45 2.429 2.352 1.979-4.136-.157h-10.211a1.415 1.415 0 0 0 -1.058.421 1.465 1.465 0 0 0 1.058 2.517h10.212l4.155-.157-2.371 2-2.45 2.41a1.367 1.367 0 0 0 -.451 1.058 1.392 1.392 0 0 0 .412 1.009 1.344 1.344 0 0 0 1 .421 1.409 1.409 0 0 0 1.039-.411l6.606-6.642a1.653 1.653 0 0 0 .567-1.154z" fill="#000" fill-rule="evenodd"/></svg>