<svg xmlns="http://www.w3.org/2000/svg" width="210" height="209" viewBox="0 0 210 209">
  <defs>
    <style>
      .cls-1 {
        fill: #fff;
        fill-rule: evenodd;
      }
    </style>
  </defs>
  <path id="Cazoobi" class="cls-1" d="M105.207,208.446C47.618,208.446.933,161.9,0.933,104.472S47.618,0.5,105.207.5,209.48,47.049,209.48,104.472,162.795,208.446,105.207,208.446Zm54.522-84.255,0.96-18.239A9.132,9.132,0,0,1,159.729,124.191Zm-15.083,14.853a168.61,168.61,0,0,1-39.172,5.3,173.988,173.988,0,0,1-40.12-5.314c-4.928-1.134-9.391-6.566-9.944-12.024a197,197,0,0,1,0-45c0.553-5.458,5.016-10.89,9.944-12.024A165.823,165.823,0,0,1,89.64,65.666V77.5a2.4,2.4,0,1,0,4.8,0V65.214c2.754-.224,5.662-0.375,8.64-0.471V83.5a2.4,2.4,0,1,0,4.8,0V64.717c2.989,0.092,5.87.274,8.64,0.508V77.5a2.4,2.4,0,1,0,4.8,0V65.7a160.617,160.617,0,0,1,23.326,4.26c4.928,1.134,9.392,6.566,9.945,12.024a195.751,195.751,0,0,1,1.289,22.539,195.461,195.461,0,0,1-1.289,22.5C154.038,132.478,149.574,137.91,144.646,139.044ZM82.922,106a8.458,8.458,0,1,0,8.479,8.458A8.469,8.469,0,0,0,82.922,106Zm45.117,0a8.458,8.458,0,1,0,8.48,8.458A8.469,8.469,0,0,0,128.038,106ZM40.68,115.071a9.218,9.218,0,0,1,8.631-9.119L50.28,124.18A9.225,9.225,0,0,1,40.68,115.071Z"/>
</svg>
