<?xml version="1.0" encoding="utf-8"?>
<!-- Generator: Adobe Illustrator 27.0.0, SVG Export Plug-In . SVG Version: 6.00 Build 0)  -->
<svg version="1.1" id="Layer_1" xmlns="http://www.w3.org/2000/svg" xmlns:xlink="http://www.w3.org/1999/xlink" x="0px" y="0px"
	 viewBox="0 0 100 100" style="enable-background:new 0 0 100 100;" xml:space="preserve">
<style type="text/css">
	.st0{opacity:0.5;fill-rule:evenodd;clip-rule:evenodd;enable-background:new    ;}
	.st1{opacity:0.8;fill-rule:evenodd;clip-rule:evenodd;enable-background:new    ;}
	.st2{fill-rule:evenodd;clip-rule:evenodd;}
</style>
<g>
	<path class="st0" d="M89.4,34.1c0-0.9-0.8-1.7-1.7-1.7c-0.3,0-0.6,0.1-0.8,0.2L55.3,51c-1.7,1-2.8,2.9-2.8,4.9v37.7
		c0,0.9,0.8,1.7,1.7,1.7c0.3,0,0.6-0.1,0.8-0.2l30.4-17.6c2.5-1.4,4.1-4.1,4.1-7V34.1L89.4,34.1z"/>
	<path class="st1" d="M12.8,32.6c-0.8-0.5-1.8-0.2-2.3,0.6c-0.1,0.3-0.2,0.5-0.2,0.8v36.3c0,2.9,1.6,5.6,4.1,7L44.8,95
		c0.8,0.5,1.8,0.2,2.3-0.6c0.1-0.2,0.2-0.5,0.2-0.8V55.8c0-2-1.1-3.9-2.8-4.9L12.8,32.6z"/>
	<path class="st2" d="M85.4,27.4c0.8-0.5,1.1-1.5,0.6-2.3c-0.1-0.3-0.4-0.5-0.6-0.6L53.9,6.3c-2.5-1.4-5.6-1.4-8.1,0L14.3,24.5
		c-0.8,0.5-1.1,1.5-0.6,2.3c0.1,0.3,0.4,0.5,0.6,0.6L47,46.3c1.7,1,3.9,1,5.6,0L85.4,27.4z"/>
</g>
</svg>
