<svg height="209" viewBox="0 0 210 209" width="210" xmlns="http://www.w3.org/2000/svg"><path d="m105.207 208.446c-57.589 0-104.274-46.546-104.274-103.974s46.685-103.972 104.274-103.972 104.273 46.549 104.273 103.972-46.685 103.974-104.273 103.974zm36.89-59.417c1.534 1.092 16 7.34 16 7.34s-5.936-14.18-7.35-15.976c-.882-1.121-4.756-6.477-9.944-1.3s.479 9.355 1.297 9.936zm21.223-38.919c-8.3-10.561-21.863-14.675-25.76-15.674-5.249-9.074-13.953-19.523-28.382-28.292-19.263-11.708-44.9-6.929-44.9-6.929l-10.812-7.341 7.246 10.869s-4.473 24.257 5.095 42.391c8.422 15.966 19.545 25.589 29.274 31.366.058.229.127.492.21.8v.011c.158.578.366 1.287.624 2.1l.058.18c.125.386.261.792.41 1.221.031.088.063.178.095.268.308.87.665 1.814 1.077 2.814.043.1.084.207.129.314.212.507.441 1.029.681 1.559l.127.279c.232.5.474 1.015.732 1.534l.033.065q.46.924.977 1.872l.06.113c.324.588.67 1.181 1.029 1.776.048.08.1.16.145.24a43.559 43.559 0 0 0 5.574 7.328c.072.077.145.153.219.23a35.472 35.472 0 0 0 3.588 3.25c10.336 8.1 20.436 7.74 20.436 7.74s-7.027-7.3-10.808-14.249c-.278-.512-.528-1.02-.765-1.524-.045-.1-.088-.192-.132-.288l-.052-.112c-.2-.44-.385-.877-.555-1.306-.009-.023-.019-.046-.029-.069s-.03-.073-.044-.109c-.186-.478-.352-.946-.505-1.4-.008-.024-.015-.047-.023-.07-.034-.1-.067-.206-.1-.309-.121-.375-.232-.743-.333-1.1-.023-.081-.049-.166-.071-.246q-.172-.635-.307-1.219c-.015-.064-.028-.126-.042-.188-.007-.031-.013-.061-.02-.091-.073-.328-.139-.645-.2-.943-.007-.039-.015-.08-.023-.12 0-.018-.007-.038-.011-.056-.065-.355-.121-.689-.166-.992 0-.024-.007-.046-.01-.07-.045-.3-.082-.584-.109-.826h.018s11.257 1.54 21.2-8.392c10-9.982 7.414-19.625 7.21-20.322a31.2 31.2 0 0 1 11.4 3.52c6.946 3.768 14.235 10.77 14.235 10.77s.373-10.074-7.723-20.373zm-82.4-11.818a13.137 13.137 0 1 1 18.591 0 13.117 13.117 0 0 1 -18.591 0z" fill="#fff" fill-rule="evenodd"/></svg>