<svg height="209" viewBox="0 0 210 209" width="210" xmlns="http://www.w3.org/2000/svg"><path d="m105.207 208.446c-57.589 0-104.274-46.546-104.274-103.974s46.685-103.972 104.274-103.972 104.273 46.549 104.273 103.972-46.685 103.974-104.273 103.974zm17.919-68.113a17.763 17.763 0 0 0 10.017-.18c4.582-1.632 9.007-6.595 9.007-6.595a45.786 45.786 0 0 0 -7.474-6.774 78.374 78.374 0 0 0 -14.268-7.453 18.638 18.638 0 0 1 4.184 9.3c.642 4.96-1.466 11.702-1.466 11.702zm-62.508-63.683c-6.228 0-9.512 8.13-9.512 8.13l-24.376 4.63a6.937 6.937 0 1 0 0 1.58l24.376 4.63s3.057 8.129 9.512 8.129c.227 0-1.359-6.1-1.359-13.549a69.742 69.742 0 0 1 1.359-13.55zm10.871-8.13-5.435-4.065s-4.077 8.808-4.077 25.745 4.077 26.421 4.077 26.421l5.435-3.387a89.541 89.541 0 0 1 -2.718-23.034c.029-13.55 2.718-21.679 2.718-21.679zm5.435-10.162s-4.756 16.26-4.756 31.842c0 16.259 4.756 32.519 4.756 32.519l6.794-5.42c.316-.915-4.077-10.84-4.077-27.1s4.077-27.1 4.077-27.1zm13.656 5.183a4.2 4.2 0 0 0 -3.775 2.823 79.569 79.569 0 0 0 -3.766 23.836 82.293 82.293 0 0 0 3.766 24.152 4.2 4.2 0 0 0 3.775 2.823h26.42l57.563-19.634v-14.654l-57.563-19.346zm67.2-9.248c-5.567 3.1-25.138 12.195-25.138 12.195l41.927 13.99s-.153-13.885 0-15.055a40.079 40.079 0 0 1 3.594-11.807s-17.669-.837-20.387.678zm22.42 30.487-3.745-1.259v13.379l3.745-1.28zm1.916 3.226v3.764l3.775-1.882zm-11.428 34.713c-5.1-15.046.679-21.68.679-21.68l-48.919 16.937s20.383 7.791 26.5 22.357.679 31.842.679 31.842 40.99-6.224 37.369-26.422c-2.229-12.412-12.404-11.517-16.31-23.034zm-58.1-41.791a4.51 4.51 0 1 1 4.523-4.51 4.517 4.517 0 0 1 -4.526 4.51zm-14.491 0a4.51 4.51 0 1 1 4.523-4.51 4.517 4.517 0 0 1 -4.526 4.51z" fill="#fff" fill-rule="evenodd"/></svg>